<?xml version="1.0" encoding="iso-8859-1"?>
<!-- Generator: Adobe Illustrator 19.0.0, SVG Export Plug-In . SVG Version: 6.00 Build 0)  -->
<svg version="1.1" id="Layer_1" xmlns="http://www.w3.org/2000/svg" xmlns:xlink="http://www.w3.org/1999/xlink" x="0px" y="0px"
	 viewBox="0 0 511.944 511.944" style="enable-background:new 0 0 511.944 511.944;" xml:space="preserve">
<path style="fill:none;stroke:#FF7D9F;stroke-miterlimit:10;" d="M503.479,192.165c5.198,20.321,7.965,41.616,7.965,63.557
	c0,141.231-114.491,255.722-255.722,255.722c-21.941,0-43.236-2.767-63.557-7.965"/>
<path style="fill:#FF0F47;" d="M503.479,192.165C475.221,81.682,375.012,0,255.722,0C114.491,0,0,114.491,0,255.722
	c0,119.29,81.682,219.498,192.165,247.757L503.479,192.165z"/>
<path style="fill:#940044;" d="M511.444,255.722c0-21.941-2.767-43.236-7.965-63.557l-75.422-75.422L83.388,394.701l108.777,108.777
	c20.321,5.198,41.616,7.965,63.557,7.965C396.953,511.444,511.444,396.953,511.444,255.722z"/>
<polygon style="fill:#C7E7EB;" points="255.722,189.012 255.722,322.432 428.056,394.701 428.056,116.743 "/>
<polygon style="fill:#D0FBFD;" points="83.388,116.743 83.388,394.701 255.722,322.432 255.722,189.012 "/>
<polygon style="fill:#A7CBCF;" points="255.722,211.249 222.367,302.975 255.722,394.701 428.056,394.701 "/>
<polygon style="fill:#B7D9DD;" points="83.388,394.701 255.722,394.701 255.722,211.249 "/>
<polygon style="fill:#D0FBFD;" points="255.722,116.743 222.367,208.469 255.722,300.195 428.056,116.743 "/>
<polygon style="fill:#FFFFFF;" points="83.388,116.743 255.722,300.195 255.722,116.743 "/>
<path style="fill:#FF0F47;" d="M255.722,144.539l-44.473,111.184l44.473,111.184c61.406,0,111.184-49.778,111.184-111.184
	S317.128,144.539,255.722,144.539z"/>
<path style="fill:#FF6176;" d="M144.539,255.722c0,61.406,49.778,111.184,111.184,111.184V144.539
	C194.318,144.539,144.539,194.318,144.539,255.722z"/>
<g>
	<rect x="239.045" y="300.195" style="fill:#FFFFFF;" width="33.355" height="33.355"/>
	<polygon style="fill:#FFFFFF;" points="272.4,277.959 239.045,277.959 233.485,177.894 277.959,177.894 	"/>
</g>
<g>
</g>
<g>
</g>
<g>
</g>
<g>
</g>
<g>
</g>
<g>
</g>
<g>
</g>
<g>
</g>
<g>
</g>
<g>
</g>
<g>
</g>
<g>
</g>
<g>
</g>
<g>
</g>
<g>
</g>
</svg>
